<svg width="1024" height="1024" viewBox="0 0 1024 1024" fill="none" xmlns="http://www.w3.org/2000/svg">
  <defs>
    <linearGradient id="bgGrad" x1="160" y1="128" x2="864" y2="896" gradientUnits="userSpaceOnUse">
      <stop offset="0" stop-color="#15161D"/>
      <stop offset="0.52" stop-color="#090A0E"/>
      <stop offset="1" stop-color="#050608"/>
    </linearGradient>
    <linearGradient id="metalDark" x1="292" y1="341" x2="729" y2="653" gradientUnits="userSpaceOnUse">
      <stop offset="0" stop-color="#5F616D"/>
      <stop offset="0.35" stop-color="#262830"/>
      <stop offset="0.65" stop-color="#6E717C"/>
      <stop offset="1" stop-color="#1A1B22"/>
    </linearGradient>
    <linearGradient id="metalLight" x1="345" y1="578" x2="720" y2="697" gradientUnits="userSpaceOnUse">
      <stop offset="0" stop-color="#17181F"/>
      <stop offset="0.45" stop-color="#D3D4DA"/>
      <stop offset="0.75" stop-color="#5D606A"/>
      <stop offset="1" stop-color="#121319"/>
    </linearGradient>
    <radialGradient id="glow" cx="0" cy="0" r="1" gradientUnits="userSpaceOnUse" gradientTransform="translate(512 122) rotate(90) scale(660 480)">
      <stop stop-color="#233461" stop-opacity="0.28"/>
      <stop offset="0.45" stop-color="#11151F" stop-opacity="0.12"/>
      <stop offset="1" stop-color="#050608" stop-opacity="0"/>
    </radialGradient>
    <filter id="shadow" x="100" y="104" width="824" height="834" filterUnits="userSpaceOnUse" color-interpolation-filters="sRGB">
      <feFlood flood-opacity="0" result="BackgroundImageFix"/>
      <feColorMatrix in="SourceAlpha" type="matrix" values="0 0 0 0 0 0 0 0 0 0 0 0 0 0 0 0 0 0 127 0" result="hardAlpha"/>
      <feOffset dy="18"/>
      <feGaussianBlur stdDeviation="20"/>
      <feColorMatrix type="matrix" values="0 0 0 0 0 0 0 0 0 0 0 0 0 0 0 0 0 0 0.55 0"/>
      <feBlend mode="normal" in2="BackgroundImageFix" result="effect1_dropShadow_1_1"/>
      <feBlend mode="normal" in="SourceGraphic" in2="effect1_dropShadow_1_1" result="shape"/>
    </filter>
    <filter id="softBlur" x="186" y="259" width="652" height="474" filterUnits="userSpaceOnUse" color-interpolation-filters="sRGB">
      <feFlood flood-opacity="0" result="BackgroundImageFix"/>
      <feBlend mode="normal" in="SourceGraphic" in2="BackgroundImageFix" result="shape"/>
      <feGaussianBlur stdDeviation="3.5" result="effect1_foregroundBlur_1_1"/>
    </filter>
  </defs>

  <g filter="url(#shadow)">
    <path d="M258 436C329 348 410 305 512 305C614 305 695 348 766 436" stroke="url(#metalDark)" stroke-width="5" stroke-linecap="round"/>
    <path d="M253 538C333 616 420 655 512 655C604 655 691 616 771 538" stroke="url(#metalLight)" stroke-width="6" stroke-linecap="round"/>
    <path d="M277 610C346 651 424 675 512 675C600 675 678 651 747 610" stroke="#1B1C24" stroke-width="3.2" stroke-linecap="round" opacity="0.92"/>

    <path d="M231 470C305 387 397 344 512 344C627 344 719 387 793 470L752 516C688 451 610 418 512 418C414 418 336 451 272 516L231 470Z" fill="none" stroke="url(#metalDark)" stroke-width="13" stroke-linejoin="round"/>
    <path d="M278 575C338 627 416 653 512 653C608 653 686 627 746 575" stroke="url(#metalLight)" stroke-width="13" stroke-linecap="round"/>
    <path d="M313 525C358 570 425 593 512 593C599 593 666 570 711 525" stroke="#20222A" stroke-width="4" stroke-linecap="round"/>

    <circle cx="512" cy="512" r="94" stroke="url(#metalDark)" stroke-width="16"/>
    <circle cx="512" cy="512" r="28" fill="url(#metalDark)"/>
    <circle cx="512" cy="512" r="11" fill="#111219"/>
    <circle cx="512" cy="512" r="31" fill="url(#metalDark)" opacity="0.14"/>

    <g filter="url(#softBlur)" opacity="0.4">
      <path d="M245 466C316 390 404 354 512 354C620 354 708 390 779 466" stroke="#8B8E9B" stroke-width="3.5" stroke-linecap="round"/>
      <path d="M292 575C350 624 423 648 512 648C601 648 674 624 732 575" stroke="#A8ABB6" stroke-width="3.5" stroke-linecap="round"/>
    </g>

    <path d="M512 296L529 338L571 355L529 372L512 414L495 372L453 355L495 338L512 296Z" fill="#E2E3E8"/>
  </g>
</svg>
