<svg width="1024" height="1024" viewBox="0 0 1024 1024" fill="none" xmlns="http://www.w3.org/2000/svg">
  <defs>
    <radialGradient id="ambient" cx="0" cy="0" r="1" gradientUnits="userSpaceOnUse" gradientTransform="translate(512 96) rotate(90) scale(900 760)">
      <stop offset="0" stop-color="#7A7A7C"/>
      <stop offset="0.38" stop-color="#48484B"/>
      <stop offset="0.74" stop-color="#25262A"/>
      <stop offset="1" stop-color="#17181C"/>
    </radialGradient>
    <radialGradient id="plateGlow" cx="0" cy="0" r="1" gradientUnits="userSpaceOnUse" gradientTransform="translate(512 190) rotate(90) scale(760 620)">
      <stop offset="0" stop-color="#3D3E44"/>
      <stop offset="0.32" stop-color="#26272D"/>
      <stop offset="0.72" stop-color="#111217"/>
      <stop offset="1" stop-color="#090A0E"/>
    </radialGradient>
    <linearGradient id="plateEdge" x1="210" y1="198" x2="802" y2="826" gradientUnits="userSpaceOnUse">
      <stop offset="0" stop-color="#3E4047"/>
      <stop offset="0.28" stop-color="#18191E"/>
      <stop offset="0.7" stop-color="#292A30"/>
      <stop offset="1" stop-color="#08090C"/>
    </linearGradient>
    <linearGradient id="metal" x1="246" y1="338" x2="770" y2="672" gradientUnits="userSpaceOnUse">
      <stop offset="0" stop-color="#17181E"/>
      <stop offset="0.26" stop-color="#6D7079"/>
      <stop offset="0.48" stop-color="#E4E6EA"/>
      <stop offset="0.7" stop-color="#555860"/>
      <stop offset="1" stop-color="#0D0F14"/>
    </linearGradient>
    <linearGradient id="metalSoft" x1="270" y1="395" x2="754" y2="628" gradientUnits="userSpaceOnUse">
      <stop offset="0" stop-color="#0C0D12"/>
      <stop offset="0.25" stop-color="#4E515A"/>
      <stop offset="0.48" stop-color="#C9CCD2"/>
      <stop offset="0.72" stop-color="#3B3E46"/>
      <stop offset="1" stop-color="#090B10"/>
    </linearGradient>
    <radialGradient id="pupilGlow" cx="0" cy="0" r="1" gradientUnits="userSpaceOnUse" gradientTransform="translate(512 512) rotate(90) scale(116 116)">
      <stop offset="0" stop-color="#090A0E"/>
      <stop offset="0.65" stop-color="#030407"/>
      <stop offset="1" stop-color="#000000"/>
    </radialGradient>
    <radialGradient id="orb" cx="0" cy="0" r="1" gradientUnits="userSpaceOnUse" gradientTransform="translate(512 512) rotate(90) scale(62 62)">
      <stop offset="0" stop-color="#D8D8D9"/>
      <stop offset="0.52" stop-color="#7B7B7E"/>
      <stop offset="1" stop-color="#1A1B20"/>
    </radialGradient>
    <filter id="plateShadow" x="132" y="146" width="760" height="744" filterUnits="userSpaceOnUse" color-interpolation-filters="sRGB">
      <feFlood flood-opacity="0" result="BackgroundImageFix"/>
      <feColorMatrix in="SourceAlpha" type="matrix" values="0 0 0 0 0 0 0 0 0 0 0 0 0 0 0 0 0 0 127 0" result="hardAlpha"/>
      <feOffset dy="18"/>
      <feGaussianBlur stdDeviation="18"/>
      <feColorMatrix type="matrix" values="0 0 0 0 0 0 0 0 0 0 0 0 0 0 0 0 0 0 0.55 0"/>
      <feBlend mode="normal" in2="BackgroundImageFix" result="effect1_dropShadow_0_1"/>
      <feBlend mode="normal" in="SourceGraphic" in2="effect1_dropShadow_0_1" result="shape"/>
    </filter>
    <filter id="innerShadow" x="178" y="180" width="668" height="668" filterUnits="userSpaceOnUse" color-interpolation-filters="sRGB">
      <feFlood flood-opacity="0" result="BackgroundImageFix"/>
      <feBlend mode="normal" in="SourceGraphic" in2="BackgroundImageFix" result="shape"/>
      <feColorMatrix in="SourceAlpha" type="matrix" values="0 0 0 0 0 0 0 0 0 0 0 0 0 0 0 0 0 0 127 0" result="hardAlpha"/>
      <feOffset dy="-8"/>
      <feGaussianBlur stdDeviation="10"/>
      <feComposite in2="hardAlpha" operator="arithmetic" k2="-1" k3="1"/>
      <feColorMatrix type="matrix" values="0 0 0 0 0.95 0 0 0 0 0.95 0 0 0 0 0.98 0 0 0 0.08 0"/>
      <feBlend mode="normal" in2="shape" result="effect1_innerShadow_0_1"/>
    </filter>
    <filter id="glyphShadow" x="208" y="256" width="608" height="442" filterUnits="userSpaceOnUse" color-interpolation-filters="sRGB">
      <feFlood flood-opacity="0" result="BackgroundImageFix"/>
      <feColorMatrix in="SourceAlpha" type="matrix" values="0 0 0 0 0 0 0 0 0 0 0 0 0 0 0 0 0 0 127 0" result="hardAlpha"/>
      <feOffset dy="10"/>
      <feGaussianBlur stdDeviation="10"/>
      <feColorMatrix type="matrix" values="0 0 0 0 0 0 0 0 0 0 0 0 0 0 0 0 0 0 0.6 0"/>
      <feBlend mode="normal" in2="BackgroundImageFix" result="effect1_dropShadow_0_1"/>
      <feBlend mode="normal" in="SourceGraphic" in2="effect1_dropShadow_0_1" result="shape"/>
    </filter>
    <filter id="starShadow" x="442" y="214" width="140" height="136" filterUnits="userSpaceOnUse" color-interpolation-filters="sRGB">
      <feFlood flood-opacity="0" result="BackgroundImageFix"/>
      <feColorMatrix in="SourceAlpha" type="matrix" values="0 0 0 0 0 0 0 0 0 0 0 0 0 0 0 0 0 0 127 0" result="hardAlpha"/>
      <feOffset dy="8"/>
      <feGaussianBlur stdDeviation="6"/>
      <feColorMatrix type="matrix" values="0 0 0 0 0 0 0 0 0 0 0 0 0 0 0 0 0 0 0.65 0"/>
      <feBlend mode="normal" in2="BackgroundImageFix" result="effect1_dropShadow_0_1"/>
      <feBlend mode="normal" in="SourceGraphic" in2="effect1_dropShadow_0_1" result="shape"/>
    </filter>
  </defs>

  <rect width="1024" height="1024" fill="url(#ambient)"/>

  <g filter="url(#plateShadow)">
    <rect x="188" y="170" width="648" height="648" rx="132" fill="url(#plateGlow)"/>
    <rect x="190" y="172" width="644" height="644" rx="130" stroke="url(#plateEdge)" stroke-width="4"/>
    <g filter="url(#innerShadow)">
      <rect x="188" y="170" width="648" height="648" rx="132" fill="transparent"/>
    </g>
  </g>

  <g filter="url(#glyphShadow)">
    <path d="M246 500C322 396 409 341 512 341C615 341 702 396 778 500" stroke="url(#metalSoft)" stroke-width="8" stroke-linecap="round"/>
    <path d="M248 500L308 560C370 503 438 474 512 474C586 474 654 503 716 560L776 500" stroke="url(#metal)" stroke-width="18" stroke-linejoin="round"/>
    <path d="M304 545C360 607 429 638 512 638C595 638 664 607 720 545" stroke="url(#metalSoft)" stroke-width="16" stroke-linecap="round"/>
    <path d="M284 570C350 640 426 676 512 676C598 676 674 640 740 570" stroke="url(#metal)" stroke-width="14" stroke-linecap="round"/>
    <path d="M334 535C384 574 443 594 512 594C581 594 640 574 690 535" stroke="#0E1015" stroke-width="4" stroke-linecap="round"/>

    <circle cx="512" cy="512" r="104" fill="url(#pupilGlow)"/>
    <circle cx="512" cy="512" r="89" stroke="url(#metal)" stroke-width="18"/>
    <circle cx="512" cy="512" r="23" fill="url(#orb)"/>
    <circle cx="512" cy="512" r="25" stroke="#D8D8DC" stroke-opacity="0.3" stroke-width="1.5"/>
  </g>

  <g filter="url(#starShadow)">
    <path d="M512 242L526 283L566 297L526 311L512 352L498 311L458 297L498 283L512 242Z" fill="#F0F1F4"/>
    <path d="M512 252L523 285L556 297L523 309L512 342L501 309L468 297L501 285L512 252Z" stroke="#8C8E95" stroke-width="1.4"/>
  </g>
</svg>
